<?xml version="1.0" standalone="no"?>
<!DOCTYPE svg PUBLIC "-//W3C//DTD SVG 20010904//EN"
 "http://www.w3.org/TR/2001/REC-SVG-20010904/DTD/svg10.dtd">
<svg version="1.0" xmlns="http://www.w3.org/2000/svg"
 width="1280.000000pt" height="850.000000pt" viewBox="0 0 1280.000000 850.000000"
 preserveAspectRatio="xMidYMid meet">
<metadata>
Created by potrace 1.15, written by Peter Selinger 2001-2017
</metadata>
<g transform="translate(0.000000,850.000000) scale(0.100000,-0.100000)"
fill="#000000" stroke="none">
<path d="M6375 8494 c-221 -19 -383 -51 -483 -95 -85 -38 -122 -78 -122 -133
0 -78 64 -148 216 -239 71 -42 126 -100 150 -154 8 -21 18 -72 21 -113 5 -64
2 -84 -17 -127 -12 -28 -30 -59 -40 -68 -19 -17 -20 -17 -330 -35 -744 -45
-1395 -173 -1911 -378 -68 -27 -155 -55 -194 -61 -301 -51 -512 -146 -564
-253 -44 -91 -23 -165 79 -281 33 -38 60 -75 60 -83 0 -27 -55 -72 -101 -83
-90 -22 -124 -36 -127 -54 -6 -28 25 -31 140 -12 59 10 111 16 113 13 7 -6
-13 -244 -26 -328 -19 -116 -57 -225 -102 -292 -41 -62 -43 -63 -83 -60 -23 1
-133 25 -245 53 -1064 263 -1502 311 -1903 209 -447 -113 -744 -410 -851 -851
-139 -572 -14 -1016 410 -1458 238 -248 648 -583 1109 -905 177 -125 732 -492
996 -662 l156 -99 48 -98 c63 -129 134 -222 237 -311 141 -121 211 -225 303
-450 101 -243 133 -285 311 -402 330 -217 644 -357 1056 -474 472 -133 977
-194 1729 -206 1321 -23 2251 180 2933 639 211 142 243 181 351 429 35 79 75
168 90 198 45 89 134 197 224 272 46 39 106 101 133 137 49 66 142 242 154
293 4 16 14 28 22 28 47 0 230 169 372 345 260 320 458 622 1109 1685 487 795
619 1006 833 1328 104 156 169 263 169 278 0 100 -176 206 -432 260 -111 24
-275 25 -308 2 -14 -9 -384 -331 -822 -717 l-798 -701 0 248 c0 269 -9 340
-55 440 -35 77 -79 128 -198 229 -319 270 -385 379 -422 698 -16 140 -20 255
-7 255 4 0 54 -9 112 -20 58 -11 117 -20 132 -20 55 0 45 45 -13 60 -21 5 -57
15 -79 20 -48 13 -100 55 -100 82 0 11 28 52 62 91 97 114 117 179 79 262 -52
114 -218 195 -538 259 -66 14 -150 37 -185 51 -529 220 -1195 350 -2063 403
l-119 7 -29 47 c-37 60 -47 115 -36 196 17 117 62 178 188 252 90 52 137 93
173 149 37 60 37 100 -3 145 -56 65 -194 113 -405 142 -108 14 -462 26 -559
18z m-4984 -2924 c139 -14 350 -58 599 -124 585 -154 562 -147 599 -183 32
-32 33 -36 28 -86 -3 -28 -14 -77 -24 -107 -16 -51 -17 -103 -15 -685 1 -346
5 -863 8 -1147 l6 -517 -35 -6 c-20 -4 -59 -1 -93 8 -155 40 -798 343 -1060
500 -555 331 -881 671 -998 1039 -91 283 -60 579 89 867 181 349 458 485 896
441z"/>
</g>
</svg>
